<svg width="0" height="0" class="hidden">
  <symbol fill="none" xmlns="http://www.w3.org/2000/svg" viewBox="0 0 178 14" id="logo">
    <path d="M9.15631 10.6323H4.96935L4.23815 13H0.973886L5.6222 0.325945H8.49475L13.1779 13H9.89621L9.15631 10.6323ZM5.70054 8.27334H8.42512L7.05848 3.87747L5.70054 8.27334ZM18.1222 0.325945L20.9512 9.14381L23.7715 0.325945H27.7931V13H24.729V10.0404L25.025 3.98192L21.9609 13H19.9414L16.8687 3.97322L17.1646 10.0404V13H14.1093V0.325945H18.1222ZM37.0984 10.6323H32.9115L32.1803 13H28.916L33.5643 0.325945H36.4369L41.12 13H37.8383L37.0984 10.6323ZM33.6427 8.27334H36.3672L35.0006 3.87747L33.6427 8.27334ZM45.4811 10.6497H51.5395V13H41.6684V11.3896L47.7095 2.68492H41.6336V0.325945H51.4786V1.89279L45.4811 10.6497ZM56.1878 13H53.1412V0.325945H56.1878V13ZM68.8967 13H65.8588L61.3671 5.11353V13H58.3118V0.325945H61.3671L65.8501 8.21241V0.325945H68.8967V13ZM81.2052 11.4332C80.7351 11.9554 80.0475 12.3762 79.1422 12.6953C78.2369 13.0145 77.2445 13.1741 76.1652 13.1741C74.5055 13.1741 73.1794 12.6663 72.1871 11.6508C71.1948 10.6352 70.6638 9.22216 70.5941 7.41158L70.5854 6.31478C70.5854 5.06711 70.806 3.97902 71.247 3.05052C71.688 2.11621 72.3177 1.39953 73.1359 0.900456C73.96 0.395583 74.9117 0.143146 75.9911 0.143146C77.5695 0.143146 78.794 0.505843 79.6644 1.23123C80.5407 1.95082 81.0514 3.02731 81.1965 4.46068H78.2543C78.1498 3.7527 77.9235 3.24783 77.5753 2.94606C77.2271 2.6443 76.7339 2.49342 76.0955 2.49342C75.3295 2.49342 74.7376 2.81839 74.3198 3.46834C73.9019 4.1183 73.6901 5.0468 73.6843 6.25385V7.01987C73.6843 8.28495 73.899 9.23666 74.3285 9.87501C74.7637 10.5076 75.4456 10.8238 76.3741 10.8238C77.1691 10.8238 77.761 10.6468 78.1498 10.2928V8.32557H76.0259V6.22774H81.2052V11.4332ZM91.4332 0.325945L94.2622 9.14381L97.0826 0.325945H101.104V13H98.0401V10.0404L98.336 3.98192L95.272 13H93.2525L90.1797 3.97322L90.4757 10.0404V13H87.4203V0.325945H91.4332ZM113.787 6.92411C113.787 8.16018 113.558 9.25407 113.099 10.2058C112.641 11.1575 111.988 11.8916 111.141 12.4081C110.299 12.9188 109.339 13.1741 108.259 13.1741C107.18 13.1741 106.223 12.9275 105.387 12.4342C104.551 11.9351 103.898 11.2242 103.428 10.3015C102.964 9.37884 102.72 8.31977 102.697 7.12432V6.41054C102.697 5.16866 102.923 4.07477 103.376 3.12886C103.835 2.17715 104.487 1.44305 105.335 0.92657C106.188 0.410091 107.157 0.151851 108.242 0.151851C109.316 0.151851 110.273 0.407189 111.115 0.917865C111.956 1.42854 112.609 2.15684 113.073 3.10275C113.543 4.04286 113.781 5.12224 113.787 6.3409V6.92411ZM110.679 6.39313C110.679 5.13385 110.468 4.17923 110.044 3.52928C109.626 2.87352 109.025 2.54565 108.242 2.54565C106.71 2.54565 105.9 3.69467 105.813 5.99271L105.805 6.92411C105.805 8.16599 106.011 9.1206 106.423 9.78796C106.835 10.4553 107.447 10.789 108.259 10.789C109.031 10.789 109.626 10.4611 110.044 9.80537C110.462 9.14962 110.674 8.20661 110.679 6.97634V6.39313ZM125.303 0.325945V8.62153C125.303 9.56164 125.103 10.377 124.703 11.0676C124.302 11.7523 123.728 12.2746 122.979 12.6344C122.23 12.9942 121.345 13.1741 120.324 13.1741C118.781 13.1741 117.565 12.7737 116.677 11.9728C115.789 11.172 115.336 10.0752 115.319 8.68246V0.325945H118.392V8.7434C118.427 10.1303 119.071 10.8238 120.324 10.8238C120.957 10.8238 121.435 10.6497 121.76 10.3015C122.085 9.95335 122.248 9.38755 122.248 8.60412V0.325945H125.303ZM137.803 13H134.765L130.274 5.11353V13H127.218V0.325945H130.274L134.757 8.21241V0.325945H137.803V13ZM149.424 2.68492H145.62V13H142.565V2.68492H138.83V0.325945H149.424V2.68492ZM156.875 10.6323H152.688L151.957 13H148.693L153.341 0.325945H156.214L160.897 13H157.615L156.875 10.6323ZM153.419 8.27334H156.144L154.777 3.87747L153.419 8.27334ZM165.084 13H162.037V0.325945H165.084V13ZM177.793 13H174.755L170.263 5.11353V13H167.208V0.325945H170.263L174.746 8.21241V0.325945H177.793V13Z" fill="#0C0E36"></path>
  </symbol>


    <symbol fill="none" xmlns="http://www.w3.org/2000/svg" viewBox="0 0 51 34" id="weather">
    <path d="M44.3668 15.5776C44.3678 14.0048 43.9444 12.4612 43.1415 11.1108C42.3386 9.76029 41.1862 8.65346 39.8069 7.90789C38.4275 7.16233 36.8727 6.8059 35.3077 6.87649C33.7426 6.94708 32.2259 7.44204 30.9187 8.30878C29.0424 6.63528 26.7561 5.4935 24.2947 5.00077C21.8334 4.50805 19.2857 4.68215 16.9135 5.50519C14.5414 6.32823 12.4303 7.77051 10.7972 9.68384C9.1641 11.5972 8.06791 13.9125 7.62128 16.392C5.47406 16.5852 3.48372 17.6021 2.06432 19.2311C0.644926 20.8601 -0.0942352 22.9758 0.000610829 25.138C0.0954569 27.3002 1.01701 29.3424 2.57355 30.8398C4.13008 32.3372 6.20176 33.1746 8.35759 33.1776H37.6013C39.0815 33.1808 40.5294 32.7438 41.7623 31.9216C42.9952 31.0994 43.9579 29.9289 44.5288 28.558C45.0996 27.187 45.2531 25.6769 44.9699 24.2185C44.6866 22.76 43.9793 21.4184 42.9372 20.3632C43.8722 18.9439 44.3695 17.2792 44.3668 15.5776ZM35.7 10.072C36.6919 10.0724 37.6651 10.3426 38.5162 10.8541C39.3673 11.3655 40.0644 12.099 40.5333 12.9765C41.0022 13.854 41.2254 14.8427 41.1792 15.8374C41.133 16.8322 40.8191 17.7957 40.2708 18.6256C38.821 18.0479 37.2243 17.9548 35.7175 18.36C35.6059 15.6226 34.7057 12.9764 33.1261 10.7424C33.9155 10.3085 34.8 10.0782 35.7 10.072ZM37.6125 29.9776H8.35759C7.66858 29.9897 6.98407 29.8639 6.344 29.6076C5.70393 29.3513 5.12112 28.9695 4.62959 28.4847C4.13806 27.9998 3.74766 27.4215 3.48116 26.7835C3.21466 26.1455 3.0774 25.4606 3.0774 24.7688C3.0774 24.077 3.21466 23.3921 3.48116 22.7541C3.74766 22.1161 4.13806 21.5378 4.62959 21.0529C5.12112 20.568 5.70393 20.1863 6.344 19.9299C6.98407 19.6736 7.66858 19.5479 8.35759 19.56C8.4351 19.5623 8.51235 19.5703 8.58868 19.584L8.86281 19.6176C9.07513 19.6396 9.28969 19.6185 9.49375 19.5556C9.69781 19.4928 9.88721 19.3894 10.0507 19.2517C10.2142 19.114 10.3485 18.9446 10.4456 18.7538C10.5427 18.563 10.6006 18.3545 10.6159 18.1408C10.7652 16.0492 11.5066 14.0439 12.7529 12.3611C13.9991 10.6783 15.6984 9.388 17.6505 8.64211C19.6027 7.89621 21.7265 7.72577 23.7719 8.15087C25.8173 8.57596 27.6991 9.57889 29.1959 11.0416C29.26 11.2666 29.3753 11.4736 29.5326 11.6463C29.69 11.819 29.8851 11.9527 30.1027 12.0368C31.0838 13.2413 31.7946 14.6441 32.1865 16.1496C32.5785 17.655 32.6423 19.2275 32.3738 20.76C32.3216 21.0787 32.3666 21.4058 32.5031 21.6984C32.6395 21.9909 32.8609 22.2351 33.1383 22.3989C33.4156 22.5627 33.7358 22.6384 34.0568 22.616C34.3777 22.5936 34.6844 22.4743 34.9366 22.2736C35.69 21.6583 36.6301 21.3196 37.6013 21.3136C38.1681 21.3136 38.7293 21.4256 39.2529 21.6434C39.7766 21.8611 40.2523 22.1803 40.6531 22.5826C41.0539 22.985 41.3718 23.4626 41.5887 23.9883C41.8056 24.514 41.9172 25.0774 41.9172 25.6464C41.9172 26.2154 41.8056 26.7788 41.5887 27.3045C41.3718 27.8301 41.0539 28.3078 40.6531 28.7101C40.2523 29.1125 39.7766 29.4316 39.2529 29.6494C38.7293 29.8671 38.1681 29.9792 37.6013 29.9792L37.6125 29.9776Z" fill="white"></path>
    <path d="M30.4103 4.88802C30.5624 5.27554 30.859 5.58823 31.2372 5.75966C31.6153 5.93109 32.0451 5.94774 32.4352 5.80607C32.8254 5.6644 33.1451 5.37558 33.3265 5.00098C33.5079 4.62639 33.5366 4.19555 33.4066 3.80002L32.4216 1.08002C32.3502 0.882516 32.2406 0.701075 32.0993 0.54606C31.958 0.391046 31.7877 0.265493 31.598 0.176572C31.215 -0.00301319 30.7766 -0.0224907 30.3793 0.122424C29.9819 0.267338 29.6582 0.564773 29.4793 0.949298C29.3004 1.33382 29.281 1.77394 29.4254 2.17282L30.4103 4.88802Z" fill="white"></path>
    <path d="M49.7011 15.6401L46.8642 15.1361C46.4478 15.0625 46.0194 15.1579 45.6731 15.4014C45.3269 15.6449 45.0912 16.0165 45.0178 16.4345C44.9445 16.8525 45.0396 17.2826 45.2821 17.6302C45.5246 17.9778 45.8948 18.2145 46.3112 18.2881L49.148 18.7905C49.24 18.8077 49.3334 18.8163 49.4269 18.8161C49.8257 18.8159 50.2098 18.6656 50.5036 18.395C50.7974 18.1243 50.9794 17.753 51.0139 17.3542C51.0483 16.9554 50.9325 16.5582 50.6895 16.2408C50.4465 15.9235 50.0938 15.7092 49.7011 15.6401Z" fill="white"></path>
    <path d="M45.2768 10.84C45.5569 10.8404 45.8319 10.7658 46.0737 10.624L48.5663 9.18403C48.9294 8.97035 49.1936 8.62117 49.3011 8.2127C49.4087 7.80423 49.351 7.36962 49.1405 7.00372C48.9301 6.63782 48.5841 6.37034 48.1779 6.25963C47.7717 6.14893 47.3385 6.20401 46.9726 6.41283L44.48 7.85283C44.1762 8.02895 43.9387 8.30078 43.8045 8.62618C43.6702 8.95157 43.6467 9.31235 43.7375 9.65255C43.8283 9.99275 44.0284 10.2934 44.3067 10.5078C44.585 10.7222 44.926 10.8384 45.2768 10.8384V10.84Z" fill="white"></path>
    <path d="M38.9368 5.85118C39.1337 5.92278 39.3426 5.95474 39.5518 5.94524C39.7609 5.93574 39.9662 5.88497 40.1558 5.79582C40.3453 5.70667 40.5156 5.58089 40.6567 5.42567C40.7979 5.27045 40.9072 5.08883 40.9784 4.89119L41.9634 2.17119C42.1022 1.77357 42.0792 1.33705 41.8993 0.956366C41.7195 0.575686 41.3973 0.281583 41.0028 0.137903C40.6083 -0.00577655 40.1733 0.0125648 39.7921 0.188945C39.411 0.365326 39.1145 0.685509 38.9671 1.07999L37.9822 3.79999C37.9106 3.99759 37.8785 4.20742 37.8877 4.41749C37.897 4.62756 37.9473 4.83374 38.036 5.02424C38.1247 5.21474 38.2499 5.38583 38.4044 5.52773C38.559 5.66962 38.7399 5.77953 38.9368 5.85118Z" fill="white"></path>
  </symbol>
</svg>